<svg width="100" height="40" viewBox="0 0 100 40" fill="none" xmlns="http://www.w3.org/2000/svg">
<g id="Frame 995460942">
<g id="Group">
<g id="Group_2">
<path id="Vector" d="M0.507069 26.0069L28.4292 0.406888C28.7436 0.125226 29.1524 -0.0312531 29.5926 4.27254e-05C30.0014 0.0313385 30.4101 0.187818 30.6931 0.500776L49.7481 21.1873C50.0311 21.5003 50.1883 21.9071 50.1569 22.3453C50.1254 22.7521 49.9682 23.1589 49.6538 23.4406L33.1772 38.5565C31.322 40.2465 30.7246 39.8396 30.0643 39.8396C29.6555 39.8709 29.2782 39.8709 28.8694 39.8396C24.8131 39.8396 16.229 39.8709 12.9903 39.8396C10.7578 39.8083 10.5376 39.245 9.81444 38.4626L0.412737 28.2602C0.129743 27.9472 -0.0274762 27.5404 0.00396765 27.1022C0.0354115 26.6954 0.192631 26.3198 0.507069 26.0069Z" fill="#AA14F0"/>
<path id="Vector_2" d="M32.3265 39.2449C31.9491 39.5266 31.5089 39.6831 31.0058 39.6831C30.1883 39.6205 29.245 39.5892 26.6666 37.3359C25.3459 36.1779 21.4155 32.7041 21.4155 32.7041C20.7237 32.1721 19.9062 31.8904 18.4283 33.5491C17.7051 34.3315 16.5417 35.4268 14.9066 37.0855C11.2906 40.6845 10.5045 39.1197 9.78125 38.4312C10.0642 38.8068 10.3787 39.1197 10.7246 39.4014C11.1333 39.7144 11.4163 39.996 12.454 39.996C13.7432 39.996 21.4155 39.8395 26.4779 39.9334C27.9872 39.9647 29.245 39.996 30.0311 39.996C30.2512 39.996 30.4713 39.996 30.7228 39.9647C31.0058 39.9334 31.2888 39.8395 31.5718 39.7457C31.8548 39.6831 32.1378 39.3701 32.3265 39.2449Z" fill="#BE28FF"/>
</g>
</g>
<g id="Group_3">
<path id="Vector_3" d="M20.5681 19.3084C21.3857 20.0908 21.763 21.2174 21.763 22.7509V28.7597H19.3104V23.0326C19.3104 22.125 19.0903 21.4365 18.65 20.9671C18.2098 20.4976 17.6124 20.2786 16.7949 20.2786C15.883 20.2786 15.1598 20.5602 14.6567 21.0922C14.1221 21.6243 13.8706 22.4067 13.8706 23.4394V28.7284H11.418V18.2443H13.7763V19.59C14.185 19.1206 14.6881 18.7451 15.317 18.4947C15.9459 18.2443 16.6376 18.1191 17.4237 18.1191C18.7129 18.1504 19.7506 18.526 20.5681 19.3084Z" fill="#FDFDFC"/>
<path id="Vector_4" d="M33.9335 24.2843H25.6637C25.821 25.0667 26.1983 25.6613 26.7957 26.1308C27.3932 26.5689 28.1793 26.8193 29.0597 26.8193C30.2231 26.8193 31.1664 26.4437 31.9211 25.6926L33.2417 27.1948C32.7701 27.7582 32.1726 28.1963 31.4494 28.478C30.7262 28.7596 29.9087 28.9161 28.9968 28.9161C27.8334 28.9161 26.8272 28.697 25.9467 28.2276C25.0663 27.7582 24.3746 27.1322 23.9029 26.3186C23.4312 25.5049 23.1797 24.566 23.1797 23.5332C23.1797 22.5005 23.3998 21.5929 23.8715 20.7792C24.3431 19.9655 24.972 19.3083 25.821 18.8701C26.6385 18.4007 27.5818 18.1816 28.6195 18.1816C29.6571 18.1816 30.569 18.4007 31.3865 18.8701C32.2041 19.3083 32.8329 19.9655 33.2732 20.7792C33.7134 21.5929 33.9649 22.5318 33.9649 23.6271C33.9964 23.721 33.9649 23.9714 33.9335 24.2843ZM26.6385 20.8105C26.104 21.2799 25.7581 21.9058 25.6323 22.6569H31.6066C31.5123 21.9058 31.1664 21.2799 30.6319 20.8105C30.0973 20.3411 29.437 20.0907 28.6195 20.0907C27.8648 20.0907 27.2045 20.3411 26.6385 20.8105Z" fill="#FDFDFC"/>
<path id="Vector_5" d="M42.2 28.1664C41.917 28.4167 41.5711 28.5732 41.1309 28.6984C40.7222 28.8236 40.2819 28.8862 39.8103 28.8862C38.6469 28.8862 37.7664 28.5732 37.1376 27.9786C36.5087 27.384 36.1943 26.5077 36.1943 25.3497V20.3111H34.4648V18.3395H36.1943V15.9297H38.6469V18.3395H41.4768V20.3111H38.6469V25.2871C38.6469 25.7879 38.7726 26.1947 39.0242 26.4451C39.2757 26.7267 39.6216 26.8519 40.1247 26.8519C40.6907 26.8519 41.1309 26.6954 41.5083 26.4138L42.2 28.1664Z" fill="#FDFDFC"/>
<path id="Vector_6" d="M61.8824 15.5849C62.7628 15.9917 63.4546 16.555 63.9262 17.2748C64.3979 17.9946 64.6494 18.8709 64.6494 19.8724C64.6494 20.8738 64.3979 21.7501 63.9262 22.4699C63.4546 23.221 62.7628 23.7844 61.8824 24.1599C61.002 24.5668 59.9643 24.7545 58.7695 24.7545H55.6565V28.7291H53.0781V14.9902H58.738C59.9329 14.9902 60.9705 15.178 61.8824 15.5849ZM61.1592 21.9066C61.7252 21.4372 62.0396 20.7487 62.0396 19.8724C62.0396 18.9961 61.7566 18.3076 61.1592 17.8382C60.5932 17.3687 59.7442 17.1183 58.6122 17.1183H55.6251V22.5638H58.6122C59.7442 22.6264 60.5932 22.376 61.1592 21.9066Z" fill="#141928"/>
<path id="Vector_7" d="M73.0493 18.1504V20.4976C72.8292 20.4663 72.6406 20.435 72.4833 20.435C71.5086 20.435 70.7854 20.7166 70.2194 21.28C69.6848 21.8433 69.4018 22.6257 69.4018 23.6897V28.791H66.9492V18.2443H69.3075V19.7778C69.9993 18.6824 71.257 18.1504 73.0493 18.1504Z" fill="#141928"/>
<path id="Vector_8" d="M75.3465 16.117C75.032 15.8353 74.9062 15.4911 74.9062 15.0529C74.9062 14.6461 75.0635 14.2705 75.3465 13.9889C75.6609 13.7072 76.0382 13.582 76.4784 13.582C76.9187 13.582 77.296 13.7072 77.6104 13.9889C77.9249 14.2705 78.0506 14.5835 78.0506 14.9903C78.0506 15.4285 77.8934 15.7727 77.6104 16.0857C77.3274 16.3674 76.9501 16.5238 76.4784 16.5238C76.0382 16.5238 75.6609 16.3987 75.3465 16.117ZM75.2521 18.2451H77.7047V28.7292H75.2521V18.2451Z" fill="#141928"/>
<path id="Vector_9" d="M89.2127 19.3084C90.0302 20.0908 90.4075 21.2174 90.4075 22.7509V28.7597H87.9549V23.0326C87.9549 22.125 87.7348 21.4365 87.2946 20.9671C86.8544 20.4976 86.2569 20.2786 85.4394 20.2786C84.5275 20.2786 83.8043 20.5602 83.3012 21.0922C82.7667 21.6243 82.5151 22.4067 82.5151 23.4394V28.7284H80.0625V18.2443H82.4208V19.59C82.8296 19.1206 83.3327 18.7451 83.9615 18.4947C84.5904 18.2443 85.2822 18.1191 86.0683 18.1191C87.3575 18.1504 88.3951 18.526 89.2127 19.3084Z" fill="#141928"/>
<path id="Vector_10" d="M100.001 28.1664C99.7178 28.4167 99.3719 28.5732 98.9317 28.6984C98.523 28.8236 98.0827 28.8862 97.6111 28.8862C96.4477 28.8862 95.5672 28.5732 94.9384 27.9786C94.3095 27.384 93.995 26.5077 93.995 25.3497V20.3111H92.2656V18.3395H93.995V15.9297H96.4477V18.3395H99.2776V20.3111H96.4477V25.2871C96.4477 25.7879 96.5734 26.1947 96.825 26.4451C97.0765 26.7267 97.4224 26.8519 97.9255 26.8519C98.4915 26.8519 98.9317 26.6954 99.309 26.4138L100.001 28.1664Z" fill="#141928"/>
</g>
</g>
</svg>
